<svg viewBox="0 0 1400 320" width="1400" height="320">
  <path d="M 40 0 H 1400 V 340 H 0 V 40 Z" fill="#741B47" stroke-width="0" />
  <path d="
   M 80 60 v 20 h 20 v -20 Z
   M 80 90 v 20 h 20 v -20 Z
   M 80 150 v 20 h 20 v -20 Z
   M 80 180 v 20 h 20 v -20 Z
   M 80 210 v 20 h 20 v -20 Z
   M 80 240 v 20 h 20 v -20 Z
   M 110 60 v 20 h 20 v -20 Z
   M 110 90 v 20 h 20 v -20 Z
   M 110 120 v 20 h 20 v -20 Z
   M 110 180 v 20 h 20 v -20 Z
   M 110 210 v 20 h 20 v -20 Z
   M 140 60 v 20 h 20 v -20 Z
   M 140 90 v 20 h 20 v -20 Z
   M 140 180 v 20 h 20 v -20 Z
   M 140 240 v 20 h 20 v -20 Z
   M 170 60 v 20 h 20 v -20 Z
   M 170 90 v 20 h 20 v -20 Z
   M 170 120 v 20 h 20 v -20 Z
   M 170 210 v 20 h 20 v -20 Z
   M 200 90 v 20 h 20 v -20 Z
   M 200 120 v 20 h 20 v -20 Z
   M 200 150 v 20 h 20 v -20 Z
   M 200 240 v 20 h 20 v -20 Z
   M 230 90 v 20 h 20 v -20 Z
   M 230 120 v 20 h 20 v -20 Z
   M 230 180 v 20 h 20 v -20 Z
   M 230 210 v 20 h 20 v -20 Z
  " fill="#ffffff" stroke-width="0" />

  <path
    d="M 614.901 129.581 L 740.521 129.581 A 2.543 2.543 0 0 0 742.367 128.835 A 3.031 3.031 0 0 0 742.391 128.811 Q 743.161 128.041 743.161 126.941 L 743.161 97.681 A 2.543 2.543 0 0 0 742.415 95.835 A 3.031 3.031 0 0 0 742.391 95.811 Q 741.621 95.041 740.521 95.041 L 645.481 95.041 A 30.151 30.151 0 0 1 635.211 93.326 A 27.748 27.748 0 0 1 630.081 90.861 Q 623.261 86.681 619.081 79.751 Q 614.901 72.821 614.901 64.461 L 614.901 30.361 A 30.151 30.151 0 0 1 616.617 20.091 A 27.748 27.748 0 0 1 619.081 14.961 Q 623.261 8.141 630.081 4.071 A 29.011 29.011 0 0 1 643.626 0.05 A 35.012 35.012 0 0 1 645.481 0.001 L 741.621 0.001 A 29.517 29.517 0 0 1 753.744 2.485 A 28.706 28.706 0 0 1 756.801 4.071 Q 763.621 8.141 767.801 14.961 A 28.567 28.567 0 0 1 771.956 29.031 A 34.405 34.405 0 0 1 771.981 30.361 L 771.981 128.041 Q 771.981 136.401 767.801 143.221 Q 763.621 150.041 756.801 154.221 Q 749.981 158.401 741.621 158.401 L 645.481 158.401 Q 638.221 158.401 631.841 154.551 Q 625.461 150.701 620.951 144.211 Q 616.441 137.721 614.901 129.581 Z M 797.941 128.041 L 797.941 30.361 A 30.151 30.151 0 0 1 799.657 20.091 A 27.748 27.748 0 0 1 802.121 14.961 Q 806.301 8.141 813.121 4.071 A 29.032 29.032 0 0 1 828.171 0.002 A 34.272 34.272 0 0 1 828.301 0.001 L 929.721 0.001 L 929.721 28.821 L 829.401 28.821 A 2.543 2.543 0 0 0 827.555 29.567 A 3.031 3.031 0 0 0 827.531 29.591 Q 826.761 30.361 826.761 31.461 L 826.761 60.281 A 2.543 2.543 0 0 0 827.507 62.127 A 3.031 3.031 0 0 0 827.531 62.151 Q 828.301 62.921 829.401 62.921 L 924.441 62.921 Q 932.801 62.921 939.731 66.991 Q 946.661 71.061 950.731 77.991 Q 954.801 84.921 954.801 93.281 L 954.801 128.041 Q 954.801 136.401 950.621 143.221 Q 946.441 150.041 939.621 154.221 Q 932.801 158.401 924.441 158.401 L 828.301 158.401 Q 819.941 158.401 813.121 154.221 Q 806.301 150.041 802.121 143.221 Q 797.941 136.401 797.941 128.041 Z M 348.701 128.041 L 348.701 61.161 Q 348.701 52.801 352.881 45.981 Q 357.061 39.161 363.881 34.981 Q 370.701 30.801 379.061 30.801 L 447.921 30.801 Q 456.281 30.801 463.211 34.981 Q 470.141 39.161 474.211 45.981 A 29.032 29.032 0 0 1 478.281 61.031 A 34.272 34.272 0 0 1 478.281 61.161 L 478.281 109.121 L 377.521 109.121 L 377.521 126.941 A 2.543 2.543 0 0 0 378.267 128.787 A 3.031 3.031 0 0 0 378.291 128.811 Q 379.061 129.581 380.161 129.581 L 478.281 129.581 L 478.281 158.401 L 379.061 158.401 Q 370.701 158.401 363.881 154.221 Q 357.061 150.041 352.881 143.221 Q 348.701 136.401 348.701 128.041 Z M 271.481 158.401 L 245.081 158.401 L 174.901 30.801 L 208.121 30.801 L 258.501 123.421 L 308.661 30.801 L 341.881 30.801 L 271.481 158.401 Z M 127.821 158.401 L 30.581 158.401 Q 22.221 158.401 15.291 154.221 Q 8.361 150.041 4.181 143.111 Q 0.001 136.181 0.001 127.821 L 0.001 30.581 Q 0.001 22.221 4.181 15.291 Q 8.361 8.361 15.291 4.181 Q 22.221 0.001 30.581 0.001 L 127.821 0.001 Q 136.181 0.001 143.111 4.181 Q 150.041 8.361 154.221 15.291 Q 158.401 22.221 158.401 30.581 L 158.401 127.821 Q 158.401 136.181 154.221 143.111 Q 150.041 150.041 143.111 154.221 Q 136.181 158.401 127.821 158.401 Z M 528.661 158.401 L 499.841 158.401 L 499.841 61.161 Q 499.841 52.801 504.021 45.981 Q 508.201 39.161 515.131 34.981 Q 522.061 30.801 530.201 30.801 L 601.041 30.801 L 601.041 59.621 L 531.301 59.621 A 2.543 2.543 0 0 0 529.455 60.367 A 3.031 3.031 0 0 0 529.431 60.391 Q 528.661 61.161 528.661 62.261 L 528.661 158.401 Z M 31.681 129.141 L 126.281 129.141 A 2.911 2.911 0 0 0 128.192 128.43 A 3.712 3.712 0 0 0 128.261 128.371 A 2.678 2.678 0 0 0 128.859 127.642 A 2.341 2.341 0 0 0 129.141 126.501 L 129.141 31.901 A 2.367 2.367 0 0 0 128.381 30.141 A 3.176 3.176 0 0 0 128.261 30.031 A 3.137 3.137 0 0 0 127.28 29.436 A 2.863 2.863 0 0 0 126.281 29.261 L 31.681 29.261 A 2.543 2.543 0 0 0 29.835 30.007 A 3.031 3.031 0 0 0 29.811 30.031 Q 29.041 30.801 29.041 31.901 L 29.041 126.501 A 2.543 2.543 0 0 0 29.787 128.347 A 3.031 3.031 0 0 0 29.811 128.371 Q 30.581 129.141 31.681 129.141 Z M 829.401 129.581 L 923.341 129.581 A 2.543 2.543 0 0 0 925.187 128.835 A 3.031 3.031 0 0 0 925.211 128.811 Q 925.981 128.041 925.981 126.941 L 925.981 94.601 A 2.543 2.543 0 0 0 925.235 92.755 A 3.031 3.031 0 0 0 925.211 92.731 Q 924.441 91.961 923.341 91.961 L 826.761 91.961 L 826.761 126.941 A 2.543 2.543 0 0 0 827.507 128.787 A 3.031 3.031 0 0 0 827.531 128.811 Q 828.301 129.581 829.401 129.581 Z M 646.581 66.001 L 743.161 66.001 L 743.161 31.461 A 2.543 2.543 0 0 0 742.415 29.615 A 3.031 3.031 0 0 0 742.391 29.591 Q 741.621 28.821 740.521 28.821 L 646.581 28.821 A 2.543 2.543 0 0 0 644.735 29.567 A 3.031 3.031 0 0 0 644.711 29.591 Q 643.941 30.361 643.941 31.461 L 643.941 63.361 A 2.543 2.543 0 0 0 644.687 65.207 A 3.031 3.031 0 0 0 644.711 65.231 Q 645.481 66.001 646.581 66.001 Z M 377.521 62.261 L 377.521 83.161 L 449.461 83.161 L 449.461 62.261 A 2.543 2.543 0 0 0 448.715 60.415 A 3.031 3.031 0 0 0 448.691 60.391 Q 447.921 59.621 446.821 59.621 L 380.161 59.621 A 2.543 2.543 0 0 0 378.315 60.367 A 3.031 3.031 0 0 0 378.291 60.391 Q 377.521 61.161 377.521 62.261 Z"
    vector-effect="non-scaling-stroke" transform="translate(320,80)" fill="#ffffff" />

</svg>