<svg width="1400" height="320"><path d="M40 0h1360v340H0V40z" fill="#741B47"/><path d="M80 60v20h20V60zm0 30v20h20V90zm0 60v20h20v-20zm0 30v20h20v-20zm0 30v20h20v-20zm0 30v20h20v-20zm30-180v20h20V60zm0 30v20h20V90zm0 30v20h20v-20zm0 60v20h20v-20zm0 30v20h20v-20zm30-150v20h20V60zm0 30v20h20V90zm0 90v20h20v-20zm0 60v20h20v-20zm30-180v20h20V60zm0 30v20h20V90zm0 30v20h20v-20zm0 90v20h20v-20zm30-120v20h20V90zm0 30v20h20v-20zm0 30v20h20v-20zm0 90v20h20v-20zm30-150v20h20V90zm0 30v20h20v-20zm0 60v20h20v-20zm0 30v20h20v-20z" fill="#fff"/><path d="M934.901 209.581h125.62a2.543 2.543 0 001.846-.746 3.031 3.031 0 00.024-.024q.77-.77.77-1.87v-29.26a2.543 2.543 0 00-.746-1.846 3.031 3.031 0 00-.024-.024q-.77-.77-1.87-.77h-95.04a30.151 30.151 0 01-10.27-1.715 27.748 27.748 0 01-5.13-2.465q-6.82-4.18-11-11.11t-4.18-15.29v-34.1a30.151 30.151 0 011.716-10.27 27.748 27.748 0 012.464-5.13q4.18-6.82 11-10.89a29.011 29.011 0 0113.545-4.021 35.012 35.012 0 011.855-.049h96.14a29.517 29.517 0 0112.123 2.484 28.706 28.706 0 013.057 1.586q6.82 4.07 11 10.89a28.567 28.567 0 014.155 14.07 34.405 34.405 0 01.025 1.33v97.68q0 8.36-4.18 15.18t-11 11q-6.82 4.18-15.18 4.18h-96.14q-7.26 0-13.64-3.85-6.38-3.85-10.89-10.34-4.51-6.49-6.05-14.63zm183.04-1.54v-97.68a30.151 30.151 0 011.716-10.27 27.748 27.748 0 012.464-5.13q4.18-6.82 11-10.89a29.032 29.032 0 0115.05-4.069 34.272 34.272 0 01.13-.001h101.42v28.82h-100.32a2.543 2.543 0 00-1.846.746 3.031 3.031 0 00-.024.024q-.77.77-.77 1.87v28.82a2.543 2.543 0 00.746 1.846 3.031 3.031 0 00.024.024q.77.77 1.87.77h95.04q8.36 0 15.29 4.07t11 11q4.07 6.93 4.07 15.29v34.76q0 8.36-4.18 15.18t-11 11q-6.82 4.18-15.18 4.18h-96.14q-8.36 0-15.18-4.18t-11-11q-4.18-6.82-4.18-15.18zm-449.24 0v-66.88q0-8.36 4.18-15.18t11-11q6.82-4.18 15.18-4.18h68.86q8.36 0 15.29 4.18t11 11a29.032 29.032 0 014.07 15.05 34.272 34.272 0 010 .13v47.96h-100.76v17.82a2.543 2.543 0 00.746 1.846 3.031 3.031 0 00.024.024q.77.77 1.87.77h98.12v28.82h-99.22q-8.36 0-15.18-4.18t-11-11q-4.18-6.82-4.18-15.18zm-77.22 30.36h-26.4l-70.18-127.6h33.22l50.38 92.62 50.16-92.62h33.22l-70.4 127.6zm-143.66 0h-97.24q-8.36 0-15.29-4.18t-11.11-11.11q-4.18-6.93-4.18-15.29v-97.24q0-8.36 4.18-15.29t11.11-11.11q6.93-4.18 15.29-4.18h97.24q8.36 0 15.29 4.18t11.11 11.11q4.18 6.93 4.18 15.29v97.24q0 8.36-4.18 15.29t-11.11 11.11q-6.93 4.18-15.29 4.18zm400.84 0h-28.82v-97.24q0-8.36 4.18-15.18t11.11-11q6.93-4.18 15.07-4.18h70.84v28.82h-69.74a2.543 2.543 0 00-1.846.746 3.031 3.031 0 00-.024.024q-.77.77-.77 1.87v96.14zm-496.98-29.26h94.6a2.911 2.911 0 001.911-.711 3.712 3.712 0 00.069-.059 2.678 2.678 0 00.598-.729 2.341 2.341 0 00.282-1.141v-94.6a2.367 2.367 0 00-.76-1.76 3.176 3.176 0 00-.12-.11 3.137 3.137 0 00-.981-.595 2.863 2.863 0 00-.999-.175h-94.6a2.543 2.543 0 00-1.846.746 3.031 3.031 0 00-.024.024q-.77.77-.77 1.87v94.6a2.543 2.543 0 00.746 1.846 3.031 3.031 0 00.024.024q.77.77 1.87.77zm797.72.44h93.94a2.543 2.543 0 001.846-.746 3.031 3.031 0 00.024-.024q.77-.77.77-1.87v-32.34a2.543 2.543 0 00-.746-1.846 3.031 3.031 0 00-.024-.024q-.77-.77-1.87-.77h-96.58v34.98a2.543 2.543 0 00.746 1.846 3.031 3.031 0 00.024.024q.77.77 1.87.77zm-182.82-63.58h96.58v-34.54a2.543 2.543 0 00-.746-1.846 3.031 3.031 0 00-.024-.024q-.77-.77-1.87-.77h-93.94a2.543 2.543 0 00-1.846.746 3.031 3.031 0 00-.024.024q-.77.77-.77 1.87v31.9a2.543 2.543 0 00.746 1.846 3.031 3.031 0 00.024.024q.77.77 1.87.77zm-269.06-3.74v20.9h71.94v-20.9a2.543 2.543 0 00-.746-1.846 3.031 3.031 0 00-.024-.024q-.77-.77-1.87-.77h-66.66a2.543 2.543 0 00-1.846.746 3.031 3.031 0 00-.024.024q-.77.77-.77 1.87z" vector-effect="non-scaling-stroke" fill="#fff"/></svg>